# xmcd
#
# Track frame offsets:
#	150
#	12357
#	25962
#	40697
#	55377
#	67962
#	81920
#	94062
#	105555
#	117882
#	130947
#	142587
#	155055
#	167572
#	179670
#	191870
#	204065
#	215600
#	228070
#	241192
#	254625
#	266742
#	280570
#	293202
#	305915
#	317992
#	330537
#	343385
#
# Disc length: 4728 seconds
#
# Revision: 0
# Processed by: cddbd v1.5.1PL0 Copyright (c) Steve Scherf et al.
# Submitted via: dBpowerAMP V4.0
#
DISCID=9e12761c
DTITLE=Jimmie Skinner - Doin' My Time
DYEAR=2003
DGENRE=Country
TTITLE0=On The Wrong Side Of The Tracks
TTITLE1=Let's Say Goodbye Like We Said Hello
TTITLE2=Doin' My Time
TTITLE3=Dad Too Is Lonely
TTITLE4=Will You Be Satisfied That Way
TTITLE5=There Won't Be Much More Time
TTITLE6=Tennessee Border
TTITLE7=Don't Give Your Heart To A Rambler
TTITLE8=I'm Afraid To Love You Anymore
TTITLE9=If There Were No You
TTITLE10=On The Wrong Side Of The Track
TTITLE11=You've Been A Little Careless
TTITLE12=There Won't Be Much More Time
TTITLE13=Will You Be Satisfied That Way
TTITLE14=You're Going To Be On The Receiving End
TTITLE15=Capital Letters (Wrote Your Name Around My Heart)
TTITLE16=Memories And A Heart So Sick And Blue
TTITLE17=Lula Lee
TTITLE18=Here's My Good-Bye To You
TTITLE19=The Rambler's Call
TTITLE20=Doin' My Time
TTITLE21=I'm Gonna Put You In My Pocket
TTITLE22=Yesterday's Winner Is A Loser Today
TTITLE23=You're My Big Baby Now
TTITLE24=Blue Banjo rag (Instr.)
TTITLE25=I Believe I'm Entitled To You
TTITLE26=You Don't Know My Mind
TTITLE27=Muddy Water Blues
EXTD=
EXTT0=
EXTT1=
EXTT2=
EXTT3=
EXTT4=
EXTT5=
EXTT6=
EXTT7=
EXTT8=
EXTT9=
EXTT10=
EXTT11=
EXTT12=
EXTT13=
EXTT14=
EXTT15=
EXTT16=
EXTT17=
EXTT18=
EXTT19=
EXTT20=
EXTT21=
EXTT22=
EXTT23=
EXTT24=
EXTT25=
EXTT26=
EXTT27=
PLAYORDER=
